<?xml version="1.0" encoding="UTF-8" standalone="no"?>
<!-- Created with Inkscape (http://www.inkscape.org/) -->
<svg
   xmlns:dc="http://purl.org/dc/elements/1.1/"
   xmlns:cc="http://web.resource.org/cc/"
   xmlns:rdf="http://www.w3.org/1999/02/22-rdf-syntax-ns#"
   xmlns:svg="http://www.w3.org/2000/svg"
   xmlns="http://www.w3.org/2000/svg"
   xmlns:xlink="http://www.w3.org/1999/xlink"
   xmlns:sodipodi="http://sodipodi.sourceforge.net/DTD/sodipodi-0.dtd"
   xmlns:inkscape="http://www.inkscape.org/namespaces/inkscape"
   version="1.0"
   width="1295.14"
   height="656.41998"
   id="svg2319"
   sodipodi:version="0.32"
   inkscape:version="0.45"
   sodipodi:docname="SuSE-logo.svg"
   inkscape:output_extension="org.inkscape.output.svg.inkscape"
   sodipodi:docbase="C:\Documents and Settings\kot\Moje dokumenty\wikipedia"
   sodipodi:modified="true">
  <metadata
     id="metadata2166">
    <rdf:RDF>
      <cc:Work
         rdf:about="">
        <dc:format>image/svg+xml</dc:format>
        <dc:type
           rdf:resource="http://purl.org/dc/dcmitype/StillImage" />
      </cc:Work>
    </rdf:RDF>
  </metadata>
  <sodipodi:namedview
     inkscape:window-height="938"
     inkscape:window-width="1280"
     inkscape:pageshadow="2"
     inkscape:pageopacity="0.0"
     guidetolerance="10.0"
     gridtolerance="10.0"
     objecttolerance="10.0"
     borderopacity="1.0"
     bordercolor="#666666"
     pagecolor="#ffffff"
     id="base"
     inkscape:zoom="0.92482245"
     inkscape:cx="647.57001"
     inkscape:cy="328.20999"
     inkscape:window-x="-4"
     inkscape:window-y="-4"
     inkscape:current-layer="svg2319"
     width="1295.14px"
     height="656.42px" />
  <defs
     id="defs2321">
    <linearGradient
       id="linearGradient11938"
       inkscape:collect="always">
      <stop
         id="stop11940"
         offset="0"
         style="stop-color:#009f30;stop-opacity:1" />
      <stop
         id="stop11942"
         offset="1"
         style="stop-color:#00f903;stop-opacity:1" />
    </linearGradient>
    <linearGradient
       inkscape:collect="always"
       id="linearGradient10953">
      <stop
         style="stop-color:#8bde78;stop-opacity:1"
         offset="0"
         id="stop10955" />
      <stop
         style="stop-color:#caf0c2;stop-opacity:1"
         offset="1"
         id="stop10957" />
    </linearGradient>
    <linearGradient
       inkscape:collect="always"
       id="linearGradient5108">
      <stop
         style="stop-color:#d2f2ca;stop-opacity:1"
         offset="0"
         id="stop5110" />
      <stop
         style="stop-color:#4acc2d;stop-opacity:1"
         offset="1"
         id="stop5112" />
    </linearGradient>
    <linearGradient
       inkscape:collect="always"
       xlink:href="#linearGradient5108"
       id="linearGradient8043"
       x1="-6.7184515"
       y1="512.09546"
       x2="-6.7184515"
       y2="182.85469"
       gradientUnits="userSpaceOnUse" />
    <linearGradient
       inkscape:collect="always"
       xlink:href="#linearGradient10953"
       id="linearGradient10959"
       x1="105.625"
       y1="202.25"
       x2="105.625"
       y2="39.84375"
       gradientUnits="userSpaceOnUse" />
    <linearGradient
       inkscape:collect="always"
       xlink:href="#linearGradient11938"
       id="linearGradient11932"
       gradientUnits="userSpaceOnUse"
       x1="995.86707"
       y1="148"
       x2="1078.7733"
       y2="148"
       gradientTransform="translate(-199.55459,45.998208)" />
    <linearGradient
       inkscape:collect="always"
       xlink:href="#linearGradient11938"
       id="linearGradient15828"
       gradientUnits="userSpaceOnUse"
       gradientTransform="translate(-199.55459,45.998208)"
       x1="995.86707"
       y1="148"
       x2="1078.7733"
       y2="148" />
    <linearGradient
       inkscape:collect="always"
       xlink:href="#linearGradient5108"
       id="linearGradient15830"
       gradientUnits="userSpaceOnUse"
       x1="-6.7184515"
       y1="512.09546"
       x2="-6.7184515"
       y2="182.85469" />
    <linearGradient
       inkscape:collect="always"
       xlink:href="#linearGradient10953"
       id="linearGradient15832"
       gradientUnits="userSpaceOnUse"
       x1="105.625"
       y1="202.25"
       x2="105.625"
       y2="39.84375" />
  </defs>
  <g
     id="g15822"
     transform="matrix(1.3622987,0,0,1.3622987,10.65259,-42.207265)">
    <path
       style="opacity:1;fill:url(#linearGradient15828);fill-opacity:1;stroke:#039b02;stroke-width:4;stroke-linecap:butt;stroke-linejoin:miter;stroke-miterlimit:4;stroke-dasharray:none;stroke-dashoffset:0;stroke-opacity:1"
       d="M 837.78121,113.09196 C 816.00441,113.09196 798.31249,130.7526 798.31248,152.52946 C 798.31248,174.30632 816.00431,191.99821 837.78121,191.99821 C 859.55811,191.99821 877.21871,174.30632 877.21871,152.52946 C 877.21871,130.7526 859.55811,113.09196 837.78121,113.09196 z M 845.81251,135.52946 C 854.15021,135.52945 860.93751,139.29676 860.93751,143.90446 C 860.93751,148.51216 854.15021,152.24821 845.81251,152.24821 C 837.47471,152.24822 830.71871,148.51216 830.71871,143.90446 C 830.71871,139.29676 837.47471,135.52946 845.81251,135.52946 z "
       id="path11930"
       sodipodi:nodetypes="csssccsssc" />
    <path
       sodipodi:nodetypes="cssssscsscssssscccsccsscssccccccccccsssc"
       id="path7064"
       d="M 441.46875,33.71875 C 407.77965,33.807255 372.88973,36.701861 338.40625,43.78125 C 115.49133,89.545237 43.32976,219.20908 34.1875,231.53125 C 25.04524,243.85343 -38.953452,357.56342 19.875,439.84375 C 78.703452,522.12408 139.92077,510.18371 168.9375,508.59375 C 197.95425,507.00378 286.58996,475.22163 285,394.53125 C 283.41004,313.84087 213.45523,290.52951 171.3125,290.78125 C 131.95372,291.01832 89.847542,319.77354 91.4375,359.125 C 93.02746,398.47648 120.43855,424.73627 160.1875,425.53125 C 199.93646,426.32623 198.75,401.28125 198.75,401.28125 C 197.55753,381.40677 178.48457,381.78504 162.1875,383.375 C 145.89042,384.96495 139.77197,374.55334 139.125,361.9375 C 138.33002,346.43541 169.0544,314.85751 215.84375,349.59375 C 261.34817,383.37606 223.3903,442.22163 187.21875,456.53125 C 157.13407,468.43287 53.660042,460.10604 55.25,357.15625 C 56.839959,254.20646 164.96875,255 164.96875,255 C 292.56289,255 327.53125,392.9375 327.53125,392.9375 L 387.5625,421.53125 C 384.78006,369.85759 376.02602,309.46875 462.28125,309.46875 C 548.53649,309.46876 597.4375,401.65625 597.4375,401.65625 L 676.9375,437.4375 C 628.84127,371.45424 639.95764,337.27197 645.125,317 C 650.29234,296.72804 660.2453,298.33996 671.375,296.75 C 682.50474,295.16005 721.03125,298.71875 721.03125,298.71875 C 835.11075,321.37565 918.60395,267.30988 926.15625,262.9375 C 933.70855,258.5651 930.92756,256.98365 933.3125,253.40625 C 935.69746,249.82885 934.90625,231.15625 934.90625,231.15625 C 823.60919,292.36964 729.78125,212.0625 729.78125,212.0625 L 713.5625,173.53125 C 713.5625,173.53125 788.50593,234.99982 859.78125,234.71875 C 897.82414,234.56754 924.29925,218.0721 939.78125,203.75 C 923.08671,127.8295 896.75,102.375 896.75,102.375 C 828.38181,61.433577 691.15625,44.46875 691.15625,44.46875 C 691.99948,65.829882 687.5,75.9375 687.5,75.9375 C 687.50002,75.9375 573.63367,33.371537 441.46875,33.71875 z M 838.21875,98.375 C 868.66245,98.374998 893.34375,123.08753 893.34375,153.53125 C 893.34373,183.97497 868.66247,208.6875 838.21875,208.6875 C 807.77501,208.6875 783.0625,183.97497 783.0625,153.53125 C 783.06248,123.08752 807.77503,98.375 838.21875,98.375 z "
       style="opacity:1;fill:url(#linearGradient15830);fill-opacity:1;stroke:#039b02;stroke-width:4;stroke-linecap:butt;stroke-linejoin:round;stroke-miterlimit:4;stroke-dasharray:none;stroke-dashoffset:0;stroke-opacity:1" />
    <rect
       y="165.02271"
       x="706.37152"
       height="9.9432936"
       width="10.539891"
       id="rect15820"
       style="opacity:1;fill:#039b02;fill-opacity:1;stroke:none;stroke-width:4;stroke-linecap:butt;stroke-linejoin:round;stroke-miterlimit:4;stroke-dasharray:none;stroke-dashoffset:0;stroke-opacity:1" />
    <path
       sodipodi:nodetypes="cscscccssssssccssscs"
       id="path2174"
       d="M 453.9375,39.609697 C 380.80023,39.609697 345.80752,42.749609 252,75.34375 C 158.19247,107.9379 106.125,160.40625 106.125,160.40625 C 216.2296,186.24308 274.27224,201.75 453.9375,201.75 C 633.60278,201.75 713.96378,179.57208 713.96376,179.57209 L 708.65737,167.21761 L 723.00818,178.26704 C 752.02492,167.33608 767.75886,160.78492 773.125,157.40625 C 778.4911,154.02759 777.49998,148.65625 777.5,148.65625 C 781.27615,92.411483 832.33907,93.403767 843.46875,94 C 854.59846,94.596235 855.59374,88.843753 855.59375,88.84375 C 739.32805,52.075968 697.78123,49.90625 697.78125,49.90625 C 699.14389,82.972894 692.81249,80.09375 692.8125,80.09375 C 604.56982,41.934754 467.45216,39.609698 453.9375,39.609697 z M 830.65625,123.875 C 824.3597,124.71006 820.1173,126.14088 814.59093,132.01421 C 805.29521,141.89355 803.51694,153.22627 809.5,151.6875 C 818.96215,149.25394 825.83633,149.07503 824.15625,144.1875 C 822.47613,139.29997 822.15602,132.49258 835.78125,124.1875 C 835.78125,124.1875 833.64569,123.47853 830.65625,123.875 z "
       style="opacity:1;color:#000000;fill:url(#linearGradient15832);fill-opacity:1;fill-rule:nonzero;stroke:none;stroke-width:1;stroke-linecap:butt;stroke-linejoin:round;marker:none;marker-start:none;marker-mid:none;marker-end:none;stroke-miterlimit:4;stroke-dasharray:none;stroke-dashoffset:0;stroke-opacity:1;visibility:visible;display:inline;overflow:visible;enable-background:accumulate" />
  </g>
</svg>
